<mxfile host="65bd71144e" scale="2" border="0">
    <diagram id="OZ6w2GOdudwYGQoKYb9u" name="Page-1">
        <mxGraphModel dx="1066" dy="692" grid="1" gridSize="10" guides="1" tooltips="1" connect="1" arrows="1" fold="1" page="1" pageScale="1" pageWidth="850" pageHeight="1100" math="0" shadow="0">
            <root>
                <mxCell id="0"/>
                <mxCell id="1" parent="0"/>
                <mxCell id="17" value="" style="rounded=0;whiteSpace=wrap;html=1;strokeColor=#0077FF;fillColor=none;" parent="1" vertex="1">
                    <mxGeometry x="97.5" y="80" width="205" height="230" as="geometry"/>
                </mxCell>
                <mxCell id="2" value="&lt;b&gt;Tools&lt;/b&gt;" style="rounded=1;whiteSpace=wrap;html=1;fillColor=#ecfdf3;dashed=1;strokeColor=#0077FF;" parent="1" vertex="1">
                    <mxGeometry x="140" y="210" width="120" height="60" as="geometry"/>
                </mxCell>
                <mxCell id="4" value="&lt;b&gt;Task&lt;/b&gt;" style="rounded=1;whiteSpace=wrap;html=1;fillColor=#f5f3ff;strokeColor=#0077FF;" parent="1" vertex="1">
                    <mxGeometry x="277.5" y="420" width="120" height="60" as="geometry"/>
                </mxCell>
                <mxCell id="5" value="&lt;b&gt;Agent&lt;/b&gt;" style="rounded=1;whiteSpace=wrap;html=1;fillColor=#fffbec;strokeColor=#0077FF;" parent="1" vertex="1">
                    <mxGeometry x="140" y="120" width="120" height="60" as="geometry"/>
                </mxCell>
                <mxCell id="10" value="&lt;b&gt;Outcome&lt;/b&gt;" style="rounded=1;whiteSpace=wrap;html=1;fillColor=#f0f9ff;strokeColor=#0077FF;" parent="1" vertex="1">
                    <mxGeometry x="422.5" y="780" width="120" height="60" as="geometry"/>
                </mxCell>
                <mxCell id="11" value="&lt;b&gt;shflow&lt;/b&gt;" style="rounded=1;whiteSpace=wrap;html=1;fillColor=#f8fafb;strokeColor=#0077FF;" parent="1" vertex="1">
                    <mxGeometry x="242.5" y="570" width="480" height="120" as="geometry"/>
                </mxCell>
                <mxCell id="16" value="&lt;b&gt;Task&lt;/b&gt;" style="rounded=1;whiteSpace=wrap;html=1;fillColor=#f5f3ff;strokeColor=#0077FF;" parent="1" vertex="1">
                    <mxGeometry x="567.5" y="420" width="120" height="60" as="geometry"/>
                </mxCell>
                <mxCell id="18" value="" style="rounded=0;whiteSpace=wrap;html=1;strokeColor=#0077FF;fillColor=none;" parent="1" vertex="1">
                    <mxGeometry x="380" y="80" width="205" height="230" as="geometry"/>
                </mxCell>
                <mxCell id="19" value="&lt;b&gt;Tools&lt;/b&gt;" style="rounded=1;whiteSpace=wrap;html=1;fillColor=#ecfdf3;dashed=1;strokeColor=#0077FF;" parent="1" vertex="1">
                    <mxGeometry x="422.5" y="210" width="120" height="60" as="geometry"/>
                </mxCell>
                <mxCell id="20" value="&lt;b&gt;Agent&lt;/b&gt;" style="rounded=1;whiteSpace=wrap;html=1;fillColor=#fffbec;strokeColor=#0077FF;" parent="1" vertex="1">
                    <mxGeometry x="422.5" y="120" width="120" height="60" as="geometry"/>
                </mxCell>
                <mxCell id="21" value="" style="rounded=0;whiteSpace=wrap;html=1;strokeColor=#0077FF;fillColor=none;" parent="1" vertex="1">
                    <mxGeometry x="670" y="80" width="205" height="230" as="geometry"/>
                </mxCell>
                <mxCell id="22" value="&lt;b&gt;Tools&lt;/b&gt;" style="rounded=1;whiteSpace=wrap;html=1;fillColor=#ecfdf3;dashed=1;strokeColor=#0077FF;" parent="1" vertex="1">
                    <mxGeometry x="712.5" y="210" width="120" height="60" as="geometry"/>
                </mxCell>
                <mxCell id="23" value="&lt;b&gt;Agent&lt;/b&gt;" style="rounded=1;whiteSpace=wrap;html=1;fillColor=#fffbec;strokeColor=#0077FF;" parent="1" vertex="1">
                    <mxGeometry x="712.5" y="120" width="120" height="60" as="geometry"/>
                </mxCell>
                <mxCell id="25" value="" style="edgeStyle=elbowEdgeStyle;elbow=vertical;endArrow=classic;html=1;rounded=1;endSize=8;startSize=8;exitX=0.5;exitY=1;exitDx=0;exitDy=0;entryX=0.725;entryY=-0.001;entryDx=0;entryDy=0;strokeColor=#0077FF;entryPerimeter=0;" parent="1" source="18" target="4" edge="1">
                    <mxGeometry width="50" height="50" relative="1" as="geometry">
                        <mxPoint x="210" y="320.0000000000002" as="sourcePoint"/>
                        <mxPoint x="347.5" y="430" as="targetPoint"/>
                    </mxGeometry>
                </mxCell>
                <mxCell id="26" value="" style="edgeStyle=elbowEdgeStyle;elbow=vertical;endArrow=classic;html=1;rounded=1;endSize=8;startSize=8;exitX=0.5;exitY=1;exitDx=0;exitDy=0;entryX=0.5;entryY=0;entryDx=0;entryDy=0;strokeColor=#0077FF;" parent="1" source="21" target="16" edge="1">
                    <mxGeometry width="50" height="50" relative="1" as="geometry">
                        <mxPoint x="492.5" y="320.0000000000002" as="sourcePoint"/>
                        <mxPoint x="347.5" y="430" as="targetPoint"/>
                    </mxGeometry>
                </mxCell>
                <mxCell id="32" value="" style="endArrow=classic;html=1;rounded=1;strokeColor=#0077FF;exitX=0.5;exitY=1;exitDx=0;exitDy=0;entryX=0.198;entryY=0.001;entryDx=0;entryDy=0;entryPerimeter=0;" parent="1" source="4" target="11" edge="1">
                    <mxGeometry width="50" height="50" relative="1" as="geometry">
                        <mxPoint x="390" y="600" as="sourcePoint"/>
                        <mxPoint x="440" y="550" as="targetPoint"/>
                    </mxGeometry>
                </mxCell>
                <mxCell id="33" value="" style="endArrow=classic;html=1;rounded=1;strokeColor=#0077FF;exitX=0.5;exitY=1;exitDx=0;exitDy=0;entryX=0.198;entryY=0.001;entryDx=0;entryDy=0;entryPerimeter=0;" parent="1" edge="1">
                    <mxGeometry width="50" height="50" relative="1" as="geometry">
                        <mxPoint x="627.27" y="479.88" as="sourcePoint"/>
                        <mxPoint x="627.3100000000002" y="569.9999999999999" as="targetPoint"/>
                    </mxGeometry>
                </mxCell>
                <mxCell id="34" value="" style="endArrow=classic;html=1;rounded=1;strokeColor=#0077FF;exitX=0.5;exitY=1;exitDx=0;exitDy=0;entryX=0.5;entryY=0;entryDx=0;entryDy=0;" parent="1" source="11" target="10" edge="1">
                    <mxGeometry width="50" height="50" relative="1" as="geometry">
                        <mxPoint x="482" y="690" as="sourcePoint"/>
                        <mxPoint x="482.0400000000002" y="780.1199999999999" as="targetPoint"/>
                    </mxGeometry>
                </mxCell>
                <mxCell id="35" value="" style="edgeStyle=elbowEdgeStyle;elbow=vertical;endArrow=classic;html=1;rounded=1;endSize=8;startSize=8;exitX=0.5;exitY=1;exitDx=0;exitDy=0;entryX=0.273;entryY=0.011;entryDx=0;entryDy=0;strokeColor=#0077FF;entryPerimeter=0;" edge="1" parent="1" source="17" target="4">
                    <mxGeometry width="50" height="50" relative="1" as="geometry">
                        <mxPoint x="492.5000000000002" y="320" as="sourcePoint"/>
                        <mxPoint x="347.5" y="430" as="targetPoint"/>
                    </mxGeometry>
                </mxCell>
            </root>
        </mxGraphModel>
    </diagram>
</mxfile>